<?xml version="1.0"?>

<svg version="1.0" xmlns="http://www.w3.org/2000/svg" width="225.000000pt" height="224.000000pt" viewBox="0 0 225.000000 224.000000" preserveAspectRatio="xMidYMid meet">

<g transform="translate(0.000000,224.000000) scale(0.100000,-0.100000)" fill="#000000" stroke="none">
<path d="M1078 1883 c29 -2 74 -2 100 0 26 2 2 3 -53 3 -55 0 -76 -1 -47 -3z"></path>
<path d="M918 1873 c7 -3 16 -2 19 1 4 3 -2 6 -13 5 -11 0 -14 -3 -6 -6z"></path>
<path d="M1298 1873 c12 -2 32 -2 45 0 12 2 2 4 -23 4 -25 0 -35 -2 -22 -4z"></path>
<path d="M970 1834 c-14 -2 -59 -9 -100 -15 -100 -15 -217 -47 -299 -82 -29&#xA;-12 -39 -13 -66 -1 -22 9 -35 10 -46 2 -12 -8 -12 -9 1 -5 8 2 26 0 40 -5 24&#xA;-9 23 -10 -29 -38 -29 -16 -58 -27 -64 -23 -5 3 -7 2 -4 -4 4 -6 -5 -15 -18&#xA;-21 -24 -11 -25 -15 -25 -115 0 -181 43 -437 95 -561 9 -21 13 -46 10 -54 -3&#xA;-9 -3 -13 1 -9 10 9 75 -124 67 -136 -3 -6 -1 -7 4 -4 13 8 26 -20 16 -35 -3&#xA;-7 -1 -8 5 -4 13 8 68 -82 64 -103 -2 -7 1 -10 6 -7 12 7 64 -59 54 -69 -4 -5&#xA;-2 -5 5 -1 18 10 26 -13 12 -32 -11 -14 -11 -15 1 -4 12 10 26 1 82 -55 57&#xA;-56 65 -69 55 -82 -10 -14 -10 -14 5 -3 15 12 22 11 47 -10 17 -12 28 -29 26&#xA;-36 -3 -7 0 -10 5 -7 5 3 21 -2 36 -11 24 -16 25 -19 10 -30 -15 -10 -14 -12&#xA;8 -10 13 0 22 5 19 9 -3 5 27 -13 65 -38 l71 -47 78 45 c43 25 85 52 93 60 8&#xA;8 28 22 44 32 15 10 40 30 55 44 63 60 71 64 91 46 17 -16 19 -15 30 5 11 20&#xA;10 21 -9 11 -14 -8 -22 -8 -27 0 -8 14 56 80 69 72 6 -3 7 -1 3 5 -9 15 64&#xA;103 77 95 6 -3 7 -1 3 5 -4 7 6 31 22 54 54 80 123 217 156 312 19 52 35 93&#xA;37 91 2 -2 5 13 6 33 1 20 7 38 13 40 5 2 8 7 5 12 -3 5 2 51 10 104 8 52 19&#xA;160 23 239 6 125 5 144 -8 143 -9 -1 -14 6 -12 17 2 9 -2 17 -8 17 -6 0 -8 -5&#xA;-4 -11 8 -13 5 -13 -63 23 -130 69 -317 126 -482 147 -78 10 -304 13 -361 5z&#xA;m220 -184 c0 -5 -4 -10 -10 -10 -5 0 -7 -6 -4 -14 3 -7 -4 -59 -15 -116 -12&#xA;-56 -21 -104 -21 -107 0 -3 -8 -2 -17 2 -15 5 -16 4 -5 -6 21 -22 14 -29 -28&#xA;-29 -22 0 -40 -2 -40 -4 0 -2 7 -23 15 -47 9 -24 13 -49 10 -57 -2 -7 -1 -11&#xA;3 -8 11 6 65 -161 57 -174 -3 -5 -1 -10 4 -10 6 0 11 -4 11 -10 0 -16 -46 -12&#xA;-60 5 -7 8 -10 24 -7 35 3 11 2 18 -2 15 -5 -2 -25 52 -47 121 -21 71 -45 129&#xA;-53 134 -9 4 -26 4 -38 -1 -22 -8 -23 -13 -24 -141 -1 -82 -4 -123 -9 -108 -5&#xA;17 -8 19 -9 8 -1 -21 -5 -22 -32 -8 -17 10 -19 22 -19 123 0 62 3 170 7 240 7&#xA;145 -2 132 108 162 59 16 225 20 225 5z m134 -20 c14 -5 28 -20 31 -32 20 -87&#xA;55 -305 50 -316 -2 -7 0 -10 5 -7 6 4 10 -6 10 -22 0 -15 7 -64 15 -108 9 -43&#xA;13 -85 11 -92 -3 -7 -1 -13 4 -13 6 0 10 -6 10 -14 0 -16 -37 -46 -56 -46 -13&#xA;0 -36 153 -29 190 5 22 4 22 -4 5 -9 -19 -10 -19 -10 2 -2 47 -10 53 -72 53&#xA;-33 0 -59 4 -59 10 0 6 -8 10 -17 9 -10 0 -13 -3 -6 -5 8 -4 8 -15 2 -42 -18&#xA;-67 -20 -69 -34 -32 -15 39 -19 83 -8 94 4 3 7 14 8 24 6 60 50 240 59 238 6&#xA;-2 8 -1 4 1 -5 3 -8 14 -8 24 0 12 4 17 11 13 7 -4 9 0 5 14 -4 11 -4 32 0 47&#xA;7 28 17 29 78 5z m121 -52 c-5 10 2 9 26 -3 45 -23 46 -24 29 -36 -11 -7 -8&#xA;-8 11 -4 19 5 34 -1 57 -20 18 -15 29 -32 25 -38 -3 -7 -3 -9 2 -5 13 12 34&#xA;-11 28 -30 -3 -12 -2 -13 4 -4 7 9 14 7 31 -11 20 -21 57 -96 50 -102 -2 -1&#xA;-18 -6 -36 -10 -26 -5 -33 -3 -39 12 -3 10 -19 37 -34 59 -16 23 -25 45 -21&#xA;49 4 5 1 5 -6 1 -18 -11 -44 13 -37 35 7 22 -6 31 -25 17 -12 -8 -12 -9 3 -4&#xA;9 3 17 1 17 -4 0 -5 -10 -12 -21 -15 -15 -5 -18 -10 -9 -15 6 -4 11 -9 9 -11&#xA;-1 -2 6 -48 15 -102 10 -54 16 -104 13 -112 -6 -14 13 -65 24 -65 3 0 14 9 24&#xA;20 10 11 22 17 26 14 5 -3 6 3 2 12 -5 13 -3 16 9 11 10 -3 19 0 22 9 3 9 1&#xA;12 -4 9 -6 -3 -10 -1 -10 4 0 14 3 14 35 -1 29 -13 32 -29 8 -55 -10 -10 -15&#xA;-14 -10 -9 10 14 9 26 -4 26 -5 0 -8 -4 -4 -9 3 -5 1 -12 -5 -16 -6 -4 -7 -11&#xA;-4 -17 4 -5 -7 -22 -24 -38 -23 -20 -33 -25 -42 -16 -8 8 -10 7 -5 -5 4 -11&#xA;-3 -24 -23 -38 -17 -11 -32 -21 -34 -21 -8 0 -30 170 -24 186 4 10 2 13 -6 8&#xA;-7 -5 -9 1 -6 19 3 15 2 24 -2 22 -4 -2 -12 33 -19 78 -7 45 -15 94 -18 109&#xA;-4 20 -1 27 13 31 16 4 15 5 -3 6 -15 1 -23 7 -23 20 0 10 -3 34 -6 52 -6 33&#xA;-6 33 11 14 9 -11 13 -14 10 -7z m-651 -35 c-2 -35 -14 -64 -24 -58 -4 3 -10&#xA;-2 -14 -10 -3 -8 -10 -15 -16 -15 -6 0 -8 6 -4 13 4 6 5 10 1 7 -3 -3 -6 -9&#xA;-7 -15 -3 -19 -22 -35 -34 -28 -6 3 -8 3 -4 -2 4 -4 -6 -26 -23 -49 -56 -79&#xA;-46 -145 34 -227 39 -40 162 -107 253 -138 88 -29 233 -38 309 -18 32 9 60 15&#xA;61 14 0 -1 4 -16 7 -33 6 -31 4 -32 -41 -45 -68 -20 -222 -17 -312 5 -92 23&#xA;-224 82 -215 96 4 6 -1 7 -11 3 -13 -5 -15 -3 -9 7 5 8 3 11 -6 8 -15 -5 -21&#xA;-1 -91 64 -32 30 -47 51 -43 59 5 8 4 10 -3 5 -16 -9 -38 49 -40 103 -2 47 29&#xA;131 49 131 7 0 10 3 6 6 -9 10 51 66 63 59 6 -3 7 0 4 9 -6 16 10 23 19 9 2&#xA;-5 2 -2 1 4 -3 12 76 74 86 68 3 -2 4 -16 4 -32z m256 -843 c0 -13 -7 -20 -20&#xA;-20 -13 0 -20 7 -20 20 0 13 7 20 20 20 13 0 20 -7 20 -20z m106 9 c3 -6 0&#xA;-17 -7 -25 -18 -17 -44 -2 -36 20 7 18 33 21 43 5z m101 -5 c3 -8 1 -20 -6&#xA;-27 -14 -14 -47 15 -37 32 10 16 36 13 43 -5z m3 -104 c0 -25 -5 -40 -12 -40&#xA;-10 0 -10 -2 -1 -8 7 -4 11 -16 9 -27 -3 -19 -7 -21 -37 -16 -6 0 -9 11 -7 24&#xA;4 20 1 23 -23 19 -27 -4 -28 -7 -31 -66 -3 -53 -5 -61 -23 -61 -18 0 -20 6&#xA;-19 70 0 38 -1 64 -4 57 -2 -7 -9 -9 -15 -5 -18 11 -47 11 -54 0 -3 -6 -1 -7&#xA;5 -3 7 4 12 1 12 -9 0 -9 -4 -13 -10 -10 -6 3 -7 -1 -4 -9 7 -18 -4 -20 -26&#xA;-6 -13 9 -13 10 0 10 13 1 13 2 0 13 -10 8 -14 26 -12 60 l3 47 125 0 124 0 0&#xA;-40z"></path>
<path d="M960 1596 c0 -2 7 -7 16 -10 8 -3 12 -2 9 4 -6 10 -25 14 -25 6z"></path>
<path d="M1016 1588 c2 -3 -18 -11 -45 -18 l-49 -12 -4 -64 -3 -64 68 -2 c37&#xA;0 72 -1 79 -2 7 -1 17 15 22 34 5 19 12 37 15 40 3 3 6 16 7 30 0 14 3 34 5&#xA;44 4 18 -2 20 -48 20 -28 1 -49 -2 -47 -6z"></path>
<path d="M980 1390 c0 -5 5 -10 11 -10 5 0 7 5 4 10 -3 6 -8 10 -11 10 -2 0&#xA;-4 -4 -4 -10z"></path>
<path d="M1037 1306 c-4 -10 -3 -15 3 -11 6 3 10 1 10 -6 0 -7 3 -10 6 -6 3 3&#xA;2 13 -4 22 -8 16 -9 16 -15 1z"></path>
<path d="M1292 1556 c-6 -13 -14 -41 -18 -63 -3 -21 -15 -72 -26 -113 -10 -41&#xA;-21 -83 -23 -92 -2 -10 1 -21 7 -24 7 -4 8 -2 4 5 -6 9 5 11 43 10 28 -2 54 0&#xA;57 4 4 3 -1 49 -11 101 -9 52 -14 100 -10 106 3 5 1 10 -6 10 -8 0 -10 13 -6&#xA;40 6 46 4 49 -11 16z"></path>
<path d="M1467 1559 c7 -7 15 -10 18 -7 3 3 -2 9 -12 12 -14 6 -15 5 -6 -5z"></path>
<path d="M1590 1421 c0 -5 5 -13 10 -16 6 -3 10 -2 10 4 0 5 -4 13 -10 16 -5&#xA;3 -10 2 -10 -4z"></path>
<path d="M1625 1400 c3 -5 8 -10 11 -10 2 0 4 5 4 10 0 6 -5 10 -11 10 -5 0&#xA;-7 -4 -4 -10z"></path>
<path d="M1661 1393 c7 -12 15 -20 18 -17 3 2 -3 12 -13 22 -17 16 -18 16 -5&#xA;-5z"></path>
<path d="M1676 1345 c4 -8 11 -15 16 -15 6 0 5 6 -2 15 -7 8 -14 15 -16 15 -2&#xA;0 -1 -7 2 -15z"></path>
<path d="M1526 1135 c-9 -26 -7 -32 5 -12 6 10 9 21 6 23 -2 3 -7 -2 -11 -11z"></path>
<path d="M1540 1096 c0 -2 7 -7 16 -10 8 -3 12 -2 9 4 -6 10 -25 14 -25 6z"></path>
<path d="M1523 1065 c0 -8 4 -12 9 -9 5 3 6 10 3 15 -9 13 -12 11 -12 -6z"></path>
<path d="M630 1408 c0 -6 3 -8 7 -5 3 4 13 1 22 -6 14 -11 14 -10 2 6 -15 20&#xA;-31 22 -31 5z"></path>
<path d="M597 1377 c-3 -7 1 -21 9 -32 8 -10 14 -14 14 -8 0 7 -4 14 -10 18&#xA;-5 3 -7 12 -3 20 3 8 3 15 0 15 -3 0 -7 -6 -10 -13z"></path>
<path d="M642 1150 c7 -11 19 -22 28 -25 8 -4 4 5 -9 19 -29 31 -36 33 -19 6z"></path>
<path d="M798 1073 c10 -4 9 -9 -4 -24 -9 -10 -13 -19 -8 -19 12 0 34 36 27&#xA;44 -4 3 -11 6 -17 5 -6 0 -5 -3 2 -6z"></path>
<path d="M1515 1810 c-3 -5 -1 -10 4 -10 6 0 11 5 11 10 0 6 -2 10 -4 10 -3 0&#xA;-8 -4 -11 -10z"></path>
<path d="M1695 1780 c27 -12 43 -12 25 0 -8 5 -22 9 -30 9 -10 0 -8 -3 5 -9z"></path>
<path d="M530 1770 c-9 -6 -10 -10 -3 -10 6 0 15 5 18 10 8 12 4 12 -15 0z"></path>
<path d="M1651 1777 c2 -1 13 -9 24 -17 19 -14 19 -14 6 3 -7 9 -18 17 -24 17&#xA;-6 0 -8 -1 -6 -3z"></path>
<path d="M1770 1750 c14 -11 30 -24 37 -30 7 -5 14 -6 17 -2 2 4 -14 17 -37&#xA;30 -37 19 -39 19 -17 2z"></path>
<path d="M395 1700 c-3 -6 1 -7 9 -4 18 7 21 14 7 14 -6 0 -13 -4 -16 -10z"></path>
<path d="M1917 1659 c7 -7 15 -10 18 -7 3 3 -2 9 -12 12 -14 6 -15 5 -6 -5z"></path>
<path d="M310 1639 c0 -5 5 -7 10 -4 6 3 10 8 10 11 0 2 -4 4 -10 4 -5 0 -10&#xA;-5 -10 -11z"></path>
<path d="M1946 1642 c-2 -4 -1 -14 5 -22 7 -12 9 -10 9 8 0 23 -5 28 -14 14z"></path>
<path d="M313 1570 c0 -30 2 -43 4 -27 2 15 2 39 0 55 -2 15 -4 2 -4 -28z"></path>
<path d="M1953 1545 c0 -33 2 -45 4 -27 2 18 2 45 0 60 -2 15 -4 0 -4 -33z"></path>
<path d="M311 1424 c0 -11 3 -14 6 -6 3 7 2 16 -1 19 -3 4 -6 -2 -5 -13z"></path>
<path d="M332 1260 c0 -14 2 -19 5 -12 2 6 2 18 0 25 -3 6 -5 1 -5 -13z"></path>
<path d="M1917 1211 c-4 -17 -3 -21 5 -13 5 5 8 16 6 23 -3 8 -7 3 -11 -10z"></path>
<path d="M345 1200 c-3 -5 -1 -10 4 -10 6 0 11 5 11 10 0 6 -2 10 -4 10 -3 0&#xA;-8 -4 -11 -10z"></path>
<path d="M366 1133 c-6 -14 -5 -15 5 -6 7 7 10 15 7 18 -3 3 -9 -2 -12 -12z"></path>
<path d="M1871 1104 c0 -11 3 -14 6 -6 3 7 2 16 -1 19 -3 4 -6 -2 -5 -13z"></path>
<path d="M425 929 c-4 -6 -5 -12 -2 -15 2 -3 7 2 10 11 7 17 1 20 -8 4z"></path>
<path d="M434 888 c3 -15 26 -23 26 -8 0 6 -4 9 -9 6 -5 -4 -12 -1 -14 4 -3 6&#xA;-4 5 -3 -2z"></path>
<path d="M1776 853 c-6 -14 -5 -15 5 -6 7 7 10 15 7 18 -3 3 -9 -2 -12 -12z"></path>
<path d="M1800 860 c0 -5 5 -10 11 -10 5 0 7 5 4 10 -3 6 -8 10 -11 10 -2 0&#xA;-4 -4 -4 -10z"></path>
<path d="M1745 792 c-3 -8 -3 -17 0 -20 3 -3 5 0 5 7 0 8 8 11 19 8 13 -3 18&#xA;0 15 7 -7 17 -32 16 -39 -2z"></path>
<path d="M1736 713 c-6 -14 -5 -15 5 -6 7 7 10 15 7 18 -3 3 -9 -2 -12 -12z"></path>
<path d="M550 701 c0 -7 -5 -9 -12 -5 -7 5 -8 3 -3 -5 5 -9 10 -10 18 -2 6 6&#xA;8 14 4 18 -4 3 -7 1 -7 -6z"></path>
<path d="M1659 633 c-13 -16 -12 -17 4 -4 16 13 21 21 13 21 -2 0 -10 -8 -17&#xA;-17z"></path>
<path d="M600 630 c-8 -5 -12 -12 -9 -15 4 -3 12 1 19 10 14 17 11 19 -10 5z"></path>
<path d="M1645 580 c3 -5 -2 -10 -11 -10 -10 0 -14 -3 -11 -7 4 -3 1 -13 -5&#xA;-22 -7 -9 0 -5 14 8 23 20 29 41 12 41 -3 0 -2 -4 1 -10z"></path>
<path d="M1580 505 c-7 -9 -8 -15 -2 -15 5 0 12 7 16 15 3 8 4 15 2 15 -2 0&#xA;-9 -7 -16 -15z"></path>
<path d="M697 480 c7 -8 20 -15 29 -16 9 -1 13 1 9 4 -4 4 -10 7 -13 7 -4 0&#xA;-14 4 -22 9 -12 7 -13 6 -3 -4z"></path>
<path d="M805 379 c-4 -6 -5 -12 -2 -15 2 -3 7 2 10 11 7 17 1 20 -8 4z"></path>
<path d="M1410 369 c-14 -11 -19 -18 -12 -14 7 4 19 2 26 -4 10 -8 17 -7 26 4&#xA;8 9 9 15 4 14 -21 -4 -28 2 -14 11 8 5 11 10 5 10 -5 0 -21 -10 -35 -21z"></path>
<path d="M1375 308 l-20 -21 23 12 c12 6 22 16 22 21 0 13 -2 12 -25 -12z"></path>
<path d="M1321 280 c-13 -11 -19 -20 -14 -20 6 0 18 9 28 20 23 25 17 25 -14&#xA;0z"></path>
<path d="M1000 216 c0 -2 7 -7 16 -10 8 -3 12 -2 9 4 -6 10 -25 14 -25 6z"></path>
<path d="M1219 193 c-13 -16 -12 -17 4 -4 16 13 21 21 13 21 -2 0 -10 -8 -17&#xA;-17z"></path>
<path d="M1080 190 c8 -5 20 -10 25 -10 6 0 3 5 -5 10 -8 5 -19 10 -25 10 -5&#xA;0 -3 -5 5 -10z"></path>
</g>
</svg>